<svg width="108" height="56" viewBox="0 0 108 56" fill="none" xmlns="http://www.w3.org/2000/svg"><g clip-path="url(#clip0_504_4678)" fill="#fff"><path d="M97.286 28.48c.84-.2 1.56-.44 2.24-.88 2.32-1.48 4.4-3.16 6.36-5.04.6-.6 1.12-1.24 1.76-1.96.32.44.68.8.84 1.28.08.2-.04.64-.24.88-.84 1-1.72 2.08-2.68 3-1.2 1.12-2.48 2.16-3.76 3.2-.68.52-1.44.96-2.16 1.4-1.32.76-2.76.52-3.76-.64-.36-.4-.64-.88-1.04-1.44-.4.32-.84.72-1.32 1-.96.64-1.96 1.24-2.96 1.8-1.04.6-3.36-.36-4.24-1.76-.88-1.36-.68-2.68.2-3.88.92-1.2 1.64-2.52 2.8-3.6 1.52-1.36 3.12-2.6 5.08-3.32.2-.08.44-.16.64-.2 1.44-.48 2.76-.4 3.76 1.12.84-1 1.84-1.76 2.44-2.84.12-.24.24-.44.4-.64.32-.36.64-.48 1.04-.08.12.16.28.32.44.48 1.04.96 1.08 1.88.2 3-1.48 1.92-3 3.8-4.44 5.72-.36.44-.64 1-.92 1.48-.08.16-.12.44-.24.48-1 .24-.56.84-.44 1.44zm-4.92-4.6c-1.12 1-2.08 2.12-2.68 3.52 2.8-1.6 6.24-4.44 8.48-6.92-1.84-.28-4.52 2.28-5.8 3.4z"/><path d="M81.095 19.6c-5 2.28-7.92 6.44-10.28 11.08-1.2-.12-1.92-.72-2.4-1.72-.2-.56-.24-.96.08-1.44.76-1.12 1.48-2.24 2.28-3.36 1.04-1.48 2.08-2.96 3.16-4.44l.48-.6c.76-.92.88-.92 1.88-.08.36-.24.68-.52 1.08-.72a59.81 59.81 0 013.24-1.56c.52-.24 1.08-.32 1.6-.32 1.28-.08 2.88 2.04 2.44 3.24-.28.76-.68 1.48-1.12 2.16-1.08 1.72-2.2 3.44-3.28 5.2-.24.4-.44.88-.76 1.56 2.64-1.64 8.64-6.44 11.12-8 .4.44.76.84 1.12 1.32-.28.24-.44.44-.68.6-2.12 1.2-7.68 5.88-9.6 7.32-.4.32-.84.6-1.24.84-.52.28-1.04.12-1.4-.24-.56-.6-1.08-1.24-1.52-1.88-.4-.64-.36-1.32-.16-2.04.56-2 1.48-3.88 2.8-5.52.4-.48.76-.96 1.16-1.4z"/><path d="M73.75 22.72c-1.16.64-1.56 1.12-2.6 1.64-2.28 1.12-7.2 4.12-9.6 5.04-1.56.6-3.92 1.52-5.6 1.6-2.04.16-2.84-1.04-4.24-2.52-.12-.12-.24-.32-.36-.48-1.4-1.72-1-3.28-.04-4.68 1.52-2.24 3.56-3.84 6.04-4.92.88-.36 1.88-.72 2.8-.88.92-.2 1.88-.24 2.76-.12 1.16.12 2.2.6 2.84 1.72.2.4.56.68.8 1 .64.92.44 1.88-.56 2.24-.6.24-1.08.6-1.68.84-2.68.96-5.4 1.68-8.32 1.68-.4 0-.8.04-1.2.08-3.08 3.8 2.72 3.08 4.28 2.64 2.64-.72 8.48-4.28 11-5.32.72-.24 1.6-.88 2.28-1.2.36-.12.64-.08.92.2.32.4.04.92.48 1.44zm-9.72-2.64c-1.16-.32-2.04-.04-2.92.32-1.16.4-1.48.32-2.44 1.08-.36.24-2.84 1.92-3.2 2.2 4.2-.4 10.8-2.36 8.56-3.6zm-27.21.96c-1.4.2-2.6.4-3.76.56-1 .16-2.6-.76-2.96-1.68-.2-.4 0-.72.32-.88.52-.28 1-.48 1.52-.68 2.16-.8 4.4-1.24 6.72-1.44.92-.08 1.52-.4 2.08-1.12 2.2-2.96 4.52-5.88 7.24-8.36.48-.44.96-.92 1.52-1.28s.8-.32 1.2.2c1.2 1.6 1.2 1.6 0 3.12-.52.64-1.04 1.28-1.48 1.88-.6.04-1.12.04-1.6.08 0 .08 0 .16-.04.28.32.04.64.04 1.12.08-.44 1.08-1.28 1.68-1.76 2.52-.48.84-1.12 1.64-1.84 2.64 1.04-.04 1.76.32 2.64.16.8-.12 1.68.16 2.12 1.08.16.44.56.8.72 1.24.16.32.2.72.28 1.08-.64.4-1.08.12-1.52-.16-.56.6-1.24.32-1.92.28l-4.16-.12c-.52 0-.84.2-1.04.64-1.92 2.92-3.88 5.88-5.76 8.84-.8 1.2-1.48 2.48-2.24 3.76-.2.32-.28.76-.44 1.2-.2.36-.36.76-.52 1.12-1.48-.04-2.04-1.08-2.56-2.04-.16-.36 0-.96.16-1.36.88-2.64 2.12-5.04 3.48-7.48.68-1.16 1.4-2.28 2.12-3.44.12-.2.2-.36.36-.72z"/><path d="M21.08 6.6c1.28-.16 2.64-.4 3.96-.52 1.4-.16 2.76-.32 4.16-.32 1.32 0 2.68.16 4 .36 1.08.16 1.48.64 1.68 1.72.08.48.16.96.28 1.4.44 2.12-2.48 1.36-3.24 2.52-.36-.4-.72-.88-1.04-1.32-2.28.16-4.56.32-6.84.52-.92.08-1.8.24-2.72.36-1.32.16-2.68.28-4 .44-.2.04-.52.08-.6.2-.4.8-1.04.8-1.8.76.24.12.48.28.84.52-.6.84-1.16 1.68-1.84 2.64h1.64c1.56 0 3.16-.16 4.72-.04 1.04.08 1.48.2 1.68 1.44.2 1.04.24 1.04.04 1.8-.16-.12-.36-.16-.44-.28-.36-.4-.8-.4-1.28-.4-2.72.08-5.36.52-8.04.84-.24 0-.6.12-.76.32-1.16 1.8-2.32 3.64-3.56 5.6 1.4-.16 2.6-.36 3.8-.4 2.48-.16 4.96-.36 7.44-.36 2.56 0 5.12.24 7.64.36.24 0 .44.04.68.08 1.12.2 1.88.72 2 1.96.04.6.52 1.2.12 1.84-1.28-.16-2.44-.32-3.64-.52-.72.6-1.24.08-1.76-.28-.6-.36-1.16-.16-1.68.12-.68.36-1.32.8-2.12.44-1.36.44-2.8.24-4.16.4-2.8.32-5.6.6-8.4.92-.76.08-1.52.2-2.24.36-.28.04-.64.28-.76.52-.44.68-1.12 1.36-.32 2.24.08.08.08.32 0 .4-.56.84-.8 1.88-1.72 2.56-1.6-.8-2.52-2-2.4-3.84H-.84c-.64-.48-.92-1.2-1.12-1.96-.16-.72 0-1.36.64-1.72 1-.56 2-1.08 3.04-1.52.52-.24.92-.48 1.2-1 1-1.72 2.04-3.4 3.08-5.08.08-.16.16-.32.28-.6-1.56.2-3 .12-4.28 1-.04-.04-.12-.04-.16-.12-.96-1.08-.76-2.12.6-2.64 1.04-.4 2.12-.72 3.24-1 .72-.24 1.48-.36 2.24-.48.48-.12.88-.28 1.2-.68.88-1.28 1.76-2.52 2.76-3.92H9.2c-1-.04-1.96-.2-2.6-1.12-.16-.24-.32-.48-.4-.76-.36-1.16-.12-1.44 1.12-1.6 2.6-.36 5.2-.76 7.8-1.12.52-.04.76-.36 1.08-.68.72-.76 1.4-1.48 2.12-2.2.24-.24.52-.48.8-.56.2-.08.6.04.72.2.44.68.8 1.4 1.24 2.2zm78.306 45.53a4.14 4.14 0 01-1.456-.247 3.238 3.238 0 01-1.131-.754l.559-.95.052-.116.09.052c.018.06.04.13.066.208.034.07.1.156.195.26.225.182.48.33.767.442a2.8 2.8 0 00.962.156c.234 0 .446-.03.637-.091.19-.07.355-.16.494-.273a1.118 1.118 0 00.455-.91c0-.139-.018-.264-.052-.377a.758.758 0 00-.156-.312 1.702 1.702 0 00-.312-.286 4.44 4.44 0 00-.507-.312c-.208-.113-.46-.234-.754-.364-.555-.225-.997-.464-1.326-.715-.32-.251-.55-.52-.69-.806a2.088 2.088 0 01-.207-.923c0-.399.104-.75.312-1.053.208-.303.498-.542.87-.715.382-.173.824-.26 1.327-.26.312 0 .606.043.884.13.286.078.55.19.793.338.242.147.459.334.65.559l-.624.78-.078.104-.091-.065a.933.933 0 00-.052-.208.9.9 0 00-.182-.26 1.46 1.46 0 00-.611-.364 2.58 2.58 0 00-.78-.104c-.2 0-.381.026-.546.078a1.1 1.1 0 00-.403.234 1.326 1.326 0 00-.273.35.861.861 0 00-.091.39c0 .14.017.265.052.378.034.104.09.208.169.312.078.104.186.212.325.325.147.104.33.212.546.325.225.104.494.22.806.35a7.91 7.91 0 011.014.508c.268.165.476.342.624.533.156.182.268.381.338.598a2.367 2.367 0 01-.182 1.82c-.191.364-.49.663-.897.897-.408.225-.936.338-1.586.338zM89.207 52v-7.15h-2.262v-.962h5.707v.962H90.3V52h-1.092zm-11.648-8.1h1.092l3.185 5.786-.026-5.785h1.144v.104a.39.39 0 00-.104.169 2.53 2.53 0 00-.013.312V52H81.9l-3.328-6.136V52h-1.014v-8.1zm-5.539 5.89h-3.016l.195-.82h2.6l.221.82zm-1.443-3.705L68.614 52h-1.079l2.9-8.216h.311l2.9 8.216h-1.119l-1.95-5.915zM60.346 52v-7.15h-2.262v-.962h5.707v.962h-2.353V52h-1.092zm-11.244 0v-.91H50.7v-6.28h-1.508v-.91h4.173v.91h-1.6v6.293h1.678V52h-4.342zm-10.049 0v-8.1h2.366c.468 0 .875.049 1.222.144.346.095.632.234.858.416.225.173.39.381.494.624a1.977 1.977 0 01.026 1.534 1.942 1.942 0 01-.39.637 1.68 1.68 0 01-.65.416c.225.087.429.2.61.338.191.139.352.299.482.48a2 2 0 01.299.573 1.8 1.8 0 01.117.637c0 .346-.065.663-.195.949-.122.277-.308.52-.56.728a2.77 2.77 0 01-.961.468c-.39.104-.845.156-1.365.156h-2.353zm1.092-.936h1.417c.355 0 .663-.048.923-.143.268-.096.476-.247.624-.455.147-.208.22-.477.22-.806 0-.303-.064-.568-.194-.793-.13-.234-.338-.416-.624-.546-.286-.139-.676-.208-1.17-.208h-1.196v2.95zm0-3.848h1.144c.442 0 .793-.052 1.053-.156.26-.104.442-.247.546-.43.112-.19.169-.398.169-.623 0-.173-.03-.33-.091-.468a.93.93 0 00-.286-.377 1.212 1.212 0 00-.494-.26 2.718 2.718 0 00-.754-.091h-1.287v2.405zm-6.603 2.574h-3.016l.195-.82h2.6l.22.82zm-1.443-3.705L30.136 52h-1.08l2.9-8.216h.312L35.167 52h-1.118l-1.95-5.915zM19.84 43.9h1.248v.105a.392.392 0 00-.104.169 2.55 2.55 0 00-.013.312v2.82h2.938v-3.405h1.248v.104a.392.392 0 00-.104.169 2.55 2.55 0 00-.013.312V52h-1.131v-3.783H20.97V52h-1.13v-8.1zm-9.621 0h1.092l3.185 5.786-.026-5.785h1.144v.104a.392.392 0 00-.104.169 2.55 2.55 0 00-.013.312V52h-.936l-3.328-6.136V52h-1.014v-8.1zM1.002 52v-.91h1.599v-6.28H1.093v-.91h4.173v.91H3.667v6.293h1.677V52H1.002z"/></g><defs><clipPath id="clip0_504_4678"><path fill="#fff" d="M0 0h108v56H0z"/></clipPath></defs></svg>