<?xml version="1.0" encoding="utf-8"?><svg xmlns="http://www.w3.org/2000/svg" xmlns:xlink="http://www.w3.org/1999/xlink"><symbol viewBox="0 0 16 16" id="sprite-svg--soc-1" xmlns="http://www.w3.org/2000/svg"><path d="M13.538 2.997A13.092 13.092 0 0010.285 2a.07.07 0 00-.054.023 10.3 10.3 0 00-.404.817 12.456 12.456 0 00-3.657 0 7.468 7.468 0 00-.411-.817C5.75 2.008 5.729 2 5.705 2a13.192 13.192 0 00-3.253.997c-.008 0-.015.008-.023.015C.357 6.064-.215 9.033.067 11.972c0 .015.008.03.023.038a13.3 13.3 0 003.993 1.987c.022.007.045 0 .053-.015.305-.412.579-.847.815-1.305.015-.03 0-.06-.03-.067a9.446 9.446 0 01-1.25-.585c-.03-.015-.03-.06-.008-.083.084-.06.168-.127.252-.187a.048.048 0 01.053-.008c2.621 1.178 5.448 1.178 8.039 0a.048.048 0 01.053.008c.084.067.167.127.251.195.03.022.03.067-.007.082-.396.233-.816.42-1.25.585-.03.008-.038.045-.03.068.244.457.518.892.815 1.304.023.008.046.015.069.008a13.266 13.266 0 004-1.987.041.041 0 00.023-.038c.335-3.396-.557-6.343-2.362-8.96-.008-.007-.016-.015-.031-.015zm-8.19 7.183c-.785 0-1.44-.712-1.44-1.59 0-.876.64-1.589 1.44-1.589.807 0 1.447.72 1.44 1.59 0 .877-.64 1.59-1.44 1.59zm5.31 0c-.785 0-1.44-.712-1.44-1.59 0-.876.64-1.589 1.44-1.589.808 0 1.448.72 1.44 1.59 0 .877-.632 1.59-1.44 1.59z"/></symbol><symbol viewBox="0 0 16 16" id="sprite-svg--soc-2" xmlns="http://www.w3.org/2000/svg"><path d="M11.835 2h2.044L9.413 7.083 14.667 14h-4.115L7.33 9.805 3.642 14H1.597l4.777-5.437L1.334 2h4.218l2.913 3.834L11.835 2zm-.718 10.781h1.133L4.937 3.154H3.722l7.395 9.627z"/></symbol><symbol viewBox="0 0 16 16" id="sprite-svg--soc-3" xmlns="http://www.w3.org/2000/svg"><path fill-rule="evenodd" clip-rule="evenodd" d="M16 8a8.1 8.1 0 01-.044.846.324.324 0 01-.325.287H.369a.324.324 0 01-.325-.287 8.092 8.092 0 01.025-1.9.324.324 0 01.324-.28h15.214c.163 0 .303.118.324.28.046.345.069.697.069 1.054zM1.54 12.467a.325.325 0 01-.275-.149 7.963 7.963 0 01-.895-1.905A.32.32 0 01.682 10h14.636a.32.32 0 01.312.413 7.962 7.962 0 01-.895 1.905.325.325 0 01-.274.149H1.539zm1.243.866c-.288 0-.435.336-.224.532A7.972 7.972 0 008 16c2.101 0 4.013-.81 5.44-2.135.212-.196.066-.532-.223-.532H2.783zM.748 5.8a.32.32 0 01-.308-.42 7.973 7.973 0 01.964-1.906.326.326 0 01.27-.14h12.655c.107 0 .208.052.269.14.401.584.727 1.224.964 1.906a.32.32 0 01-.31.421H.749zM8 0C6.01 0 4.189.727 2.79 1.93c-.224.191-.08.537.213.537h9.994c.293 0 .437-.346.214-.537A7.968 7.968 0 008 0z"/></symbol></svg>